<svg id="レイヤー_1" data-name="レイヤー 1" xmlns="http://www.w3.org/2000/svg" viewBox="0 0 128 128">
  <defs>
    <style>
      .cls-1 {
        fill: #c28771;
      }
    </style>
  </defs>
  <path class="cls-1" d="M49.38,22.56A10.16,10.16,0,1,1,59.54,32.72,10.16,10.16,0,0,1,49.38,22.56ZM98.13,61.85,91.4,51.73a18.88,18.88,0,0,0-6.33-5.79l-13.2-7.39c-2.42-1.13-4.25-1.85-6.55-1.54L59,37.87a9.37,9.37,0,0,0-6,3.35L41,54,30,58.08a4.18,4.18,0,0,0-2.54,5.16l.05.16a4.18,4.18,0,0,0,4.93,2.83l9-2.07a18.86,18.86,0,0,0,6.27-2.72l6.24-4.2L56.08,74a5.64,5.64,0,0,1-.71,3.55L36.68,110a4.87,4.87,0,0,0,1.76,6.62l.17.09A4.85,4.85,0,0,0,45,115.31L65.92,85.43l6.33,12.63a9.47,9.47,0,0,0,1.83,2.51l14,13.73a4.75,4.75,0,0,0,6.44.18l.22-.2a4.74,4.74,0,0,0,.41-6.73L83.33,94.34,76.89,71l0,0L75,52.82l6.53,2.93L92,66.74a3.87,3.87,0,0,0,5,.52l.1-.07A3.86,3.86,0,0,0,98.13,61.85Z"/>
</svg>
