<svg id="レイヤー_1" data-name="レイヤー 1" xmlns="http://www.w3.org/2000/svg" viewBox="0 0 128 128">
  <defs>
    <style>
      .cls-1 {
        fill: #6f98a6;
      }
    </style>
  </defs>
  <path class="cls-1" d="M97.44,28.12a7.22,7.22,0,0,0-6.86-4.88H37.42a7.27,7.27,0,0,0-6.86,4.88l-10,28.94V95.72a4.84,4.84,0,0,0,4.83,4.83h4.83A4.85,4.85,0,0,0,35,95.72V90.89H93v4.83a4.85,4.85,0,0,0,4.84,4.83h4.83a4.84,4.84,0,0,0,4.83-4.83V57.06ZM42.25,76.39a7.25,7.25,0,1,1,7.25-7.25A7.23,7.23,0,0,1,42.25,76.39Zm43.5,0A7.25,7.25,0,1,1,93,69.14,7.23,7.23,0,0,1,85.75,76.39Zm-51.66-29,5-14.5H88.84l5,14.5Z"/>
</svg>
