<svg id="レイヤー_1" data-name="レイヤー 1" xmlns="http://www.w3.org/2000/svg" viewBox="0 0 128 128">
  <defs>
    <style>
      .cls-1 {
        fill: #c28771;
      }
    </style>
  </defs>
  <g>
    <path class="cls-1" d="M51.67,20.38V40.91a2.37,2.37,0,0,1-2.37,2.37h-.63a2.38,2.38,0,0,1-2.38-2.37V20.29c0-3.38-2.27-4.39-4.46-4.39s-4.45,1-4.45,4.39V40.91A2.38,2.38,0,0,1,35,43.28h-.63A2.37,2.37,0,0,1,32,40.91V20.38c0-6-8.64-5.84-8.64.07v19.6c0,10.88,2.56,13.71,6.86,17.1,3.46,2.73,6.41,4.29,6.41,11.07v43.63H47V68.22c0-6.78,3-8.34,6.42-11.07,4.3-3.39,6.89-6.22,6.85-17.1V20.45C60.3,14.54,51.67,14.33,51.67,20.38Z"/>
    <path class="cls-1" d="M85.14,22.43c-2.21,6.19-8.56,20.7-9,33.51-.62,19.89,11.57,16.94,11.79,30V112H98.3l0,.13V22.43C98.35,14.88,88.58,12.79,85.14,22.43Z"/>
  </g>
</svg>
