<svg id="レイヤー_1" data-name="レイヤー 1" xmlns="http://www.w3.org/2000/svg" viewBox="0 0 128 128">
  <defs>
    <style>
      .cls-1 {
        fill: #6f98a6;
      }
    </style>
  </defs>
  <path class="cls-1" d="M25.86,84.14A14.35,14.35,0,0,0,30.67,94.8v8.55a4.82,4.82,0,0,0,4.8,4.81h4.81a4.82,4.82,0,0,0,4.8-4.81v-4.8H83.51v4.8a4.82,4.82,0,0,0,4.81,4.81h4.8a4.82,4.82,0,0,0,4.81-4.81V94.8a14.34,14.34,0,0,0,4.8-10.66v-48c0-16.82-17.2-19.22-38.43-19.22S25.86,19.28,25.86,36.1Zm16.82,4.8a7.21,7.21,0,1,1,7.21-7.21A7.2,7.2,0,0,1,42.68,88.94Zm43.24,0a7.21,7.21,0,1,1,7.2-7.21A7.2,7.2,0,0,1,85.92,88.94Zm7.2-28.82H35.47v-24H93.12Z"/>
</svg>
