<?xml version="1.0" encoding="UTF-8"?>
<svg id="_イヤー_1" data-name="レイヤー 1" xmlns="http://www.w3.org/2000/svg" viewBox="0 0 128 128">
  <defs>
    <style>
      .cls-1 {
        fill: #c28771;
      }
    </style>
  </defs>
  <path class="cls-1" d="M13.07,85.67c0,7.25,6.79,13.13,15.16,13.13H92.5c8.37,0,15.16-5.88,15.16-13.13v-.17H13.07v.17Z"/>
  <path class="cls-1" d="M108.31,36.66c-2.84-2.85-6.82-4.63-11.17-4.63h-3.17v-2.44H26.2v22.51c0,11.1,4.89,21.05,12.64,27.83h42.49c5.13-4.49,8.99-10.37,11.03-17.05,1.51,.48,3.12,.74,4.78,.74,4.35,0,8.32-1.77,11.17-4.63,2.85-2.85,4.63-6.82,4.63-11.17,0-4.35-1.77-8.32-4.63-11.17Zm-5.99,16.34c-1.34,1.33-3.14,2.15-5.18,2.15-1.17,0-2.27-.28-3.25-.76,.05-.76,.07-1.51,.07-2.28v-11.6h3.17c2.04,0,3.84,.81,5.18,2.15,1.33,1.34,2.14,3.14,2.14,5.17,0,2.03-.81,3.84-2.14,5.17Z"/>
</svg>