<svg id="レイヤー_1" data-name="レイヤー 1" xmlns="http://www.w3.org/2000/svg" viewBox="0 0 128 128">
  <defs>
    <style>
      .cls-1 {
        fill: #6f98a6;
      }
    </style>
  </defs>
  <path class="cls-1" d="M96.81,97.77a28.57,28.57,0,0,1-16.25-5.36,28,28,0,0,1-32.51,0A28.61,28.61,0,0,1,31.8,97.77H23.67v8.13H31.8a35.89,35.89,0,0,0,16.25-4,35.58,35.58,0,0,0,32.51,0,35.35,35.35,0,0,0,16.25,4h8.13V97.77ZM31.59,89.64h.21c6.5,0,12.27-3.57,16.25-8.12,4,4.55,9.75,8.12,16.25,8.12s12.27-3.57,16.26-8.12c4,4.55,9.75,8.12,16.25,8.12H97l7.68-27.14a4.24,4.24,0,0,0-.24-3.17,4.08,4.08,0,0,0-2.44-2l-5.2-1.71V36.82a8.16,8.16,0,0,0-8.13-8.13H76.49V16.5H52.11V28.69H39.92a8.15,8.15,0,0,0-8.12,8.13V55.59L26.55,57.3a4.06,4.06,0,0,0-2.43,2,4.11,4.11,0,0,0-.25,3.17Zm8.33-52.82H88.68V53L64.3,45,39.92,53Z"/>
</svg>
