<svg id="レイヤー_1" data-name="レイヤー 1" xmlns="http://www.w3.org/2000/svg" viewBox="0 0 128 128">
  <defs>
    <style>
      .cls-1 {
        fill: #6f98a6;
      }
    </style>
  </defs>
  <path class="cls-1" d="M94.9,115.39h11.47L87.11,92.46a16.16,16.16,0,0,0,13.07-15.85v-48c0-10.41-10.11-16.15-36.67-16.15S26.85,18.23,26.85,28.64v48A16.13,16.13,0,0,0,40.12,92.48L20.89,115.39H32.35L45.27,100H82ZM84,80.38a5.58,5.58,0,1,1,5.58-5.58A5.58,5.58,0,0,1,84,80.38ZM48.88,19.6a.76.76,0,0,1,.77-.77H77.38a.77.77,0,0,1,.77.77v4.79a.77.77,0,0,1-.77.77H49.65a.76.76,0,0,1-.77-.77Zm-14,34.56V33.89a3.59,3.59,0,0,1,3.59-3.59H88.59a3.59,3.59,0,0,1,3.59,3.59V54.16a3.59,3.59,0,0,1-3.59,3.59H38.44A3.59,3.59,0,0,1,34.85,54.16ZM37.41,74.8A5.59,5.59,0,1,1,43,80.38,5.58,5.58,0,0,1,37.41,74.8Z"/>
</svg>
