<svg id="レイヤー_1" data-name="レイヤー 1" xmlns="http://www.w3.org/2000/svg" viewBox="0 0 128 128">
  <defs>
    <style>
      .cls-1 {
        fill: #c28771;
      }
    </style>
  </defs>
  <g>
    <g>
      <path class="cls-1" d="M95.53,56.56a21.62,21.62,0,0,0-6.71,1.06l-4.4-11.11a1.39,1.39,0,0,0-1.3-.89H45.66l3.68-11.27a7.62,7.62,0,0,1,7.26-5.26h8.21a1.41,1.41,0,0,0,0-2.81H56.6a10.45,10.45,0,0,0-9.93,7.19L38.91,57.26a21.51,21.51,0,0,0-5.41-.7,21.8,21.8,0,1,0,8.08,1.56l3.16-9.69H82.17l4.06,10.23a21.75,21.75,0,1,0,9.3-2.1ZM46.92,64.92a19.28,19.28,0,1,1-8.89-5l-5.86,18a1.4,1.4,0,1,0,2.66.87l5.88-18A19.15,19.15,0,0,1,46.92,64.92Zm62,26.84A19,19,0,1,1,87.26,61.28l7,17.58a1.4,1.4,0,0,0,2.6-1l-7-17.6A19,19,0,0,1,109,91.76Z"/>
      <path class="cls-1" d="M95.53,102a23.67,23.67,0,0,1-11.7-44.25l-3-7.44H46.12l-2.2,6.75a24.16,24.16,0,1,1-6.29-2l7.23-22.15a12.34,12.34,0,0,1,11.74-8.5h8.21a3.31,3.31,0,0,1,0,6.61H56.6a5.71,5.71,0,0,0-5.45,3.95l-2.87,8.78H83.12a3.29,3.29,0,0,1,3.07,2.09L90,55.32A23.68,23.68,0,1,1,95.53,102ZM86.29,64a16.87,16.87,0,1,0,6.14-2.45L98.6,77.12a3.31,3.31,0,0,1,0,2.53,3.27,3.27,0,0,1-1.82,1.76,3.31,3.31,0,0,1-2.53,0,3.27,3.27,0,0,1-1.75-1.81ZM33.5,61.26a17.18,17.18,0,1,0,8.34,2.18l-5.2,15.93a3.3,3.3,0,0,1-6.28-2.05l5.19-15.93A17.91,17.91,0,0,0,33.5,61.26Z"/>
    </g>
    <g>
      <path class="cls-1" d="M75.15,40.75H88.74a1.4,1.4,0,1,0,0-2.8H75.15a1.4,1.4,0,1,0,0,2.8Z"/>
      <path class="cls-1" d="M88.74,42.65H75.15a3.3,3.3,0,1,1,0-6.6H88.74a3.3,3.3,0,0,1,0,6.6Z"/>
    </g>
  </g>
</svg>
