<svg id="レイヤー_1" data-name="レイヤー 1" xmlns="http://www.w3.org/2000/svg" viewBox="0 0 128 128">
  <defs>
    <style>
      .cls-1 {
        fill: #c28771;
      }
    </style>
  </defs>
  <path class="cls-1" d="M52.47,28.91C52.47,22.75,57.7,12,64,12c6.48,0,11.53,10.72,11.53,16.88v21L107.2,68a5.8,5.8,0,0,1,2.9,5V83.13a2.89,2.89,0,0,1-3.67,2.77l-30.9-8.84V95.59l10.37,7.78a2.89,2.89,0,0,1,1.15,2.3v7.56a2.56,2.56,0,0,1-2.68,2.53,2.31,2.31,0,0,1-.54-.1L64,110l-19.83,5.66a2.37,2.37,0,0,1-.7.1A2.52,2.52,0,0,1,41,113.23v-7.56a2.89,2.89,0,0,1,1.15-2.3l10.37-7.78V77.06L21.57,85.9a2.88,2.88,0,0,1-3.67-2.77V73a5.78,5.78,0,0,1,2.9-5L52.47,49.9Z"/>
</svg>
